<svg width="56" height="56" viewBox="0 0 56 56" fill="none" xmlns="http://www.w3.org/2000/svg">
<g filter="url(#filter0_d_61385_125)">
<rect x="4" width="48" height="48" fill="#323238"/>
<g clip-path="url(#clip0_61385_125)">
<path d="M40.6849 16.8454C39.7604 17.236 38.7804 17.4936 37.777 17.6099C38.8352 17.0044 39.6271 16.0518 40.0049 14.9295C39.0116 15.4966 37.9235 15.8957 36.7883 16.1093C36.0949 15.3978 35.1931 14.9025 34.2008 14.6882C33.2085 14.4739 32.1716 14.5504 31.2254 14.9078C30.2793 15.2652 29.4678 15.8869 28.8969 16.6917C28.3259 17.4966 28.022 18.4472 28.0249 19.4196C28.0229 19.7917 28.0668 20.1627 28.1557 20.525C26.1397 20.4295 24.1674 19.9287 22.3677 19.0552C20.568 18.1817 18.9813 16.9551 17.7112 15.4557C17.0632 16.5232 16.8653 17.7866 17.158 18.9887C17.4506 20.1907 18.2117 21.2409 19.2861 21.9253C18.4786 21.9062 17.6883 21.6984 16.9842 21.3201V21.3803C16.9836 22.4996 17.3886 23.5845 18.1302 24.4508C18.8718 25.3171 19.9044 25.9112 21.0524 26.1322C20.6174 26.2449 20.1688 26.3021 19.7181 26.3021C19.3986 26.3027 19.0798 26.2726 18.7665 26.2124C19.0901 27.1751 19.7205 28.017 20.5695 28.6202C21.4184 29.2235 22.4435 29.5581 23.5012 29.577C21.7066 30.9253 19.489 31.6563 17.2064 31.6521C16.8025 31.6517 16.399 31.6284 15.998 31.5825C18.3046 33.0171 20.9986 33.778 23.7505 33.7721C25.6488 33.7848 27.5308 33.4367 29.2872 32.7481C31.0435 32.0595 32.6391 31.0441 33.9812 29.7609C35.3233 28.4776 36.3851 26.9522 37.105 25.2733C37.8248 23.5944 38.1884 21.7955 38.1744 19.9811C38.1744 19.7711 38.1744 19.5611 38.1584 19.3559C39.1498 18.6691 40.0054 17.819 40.6849 16.8454Z" fill="white"/>
</g>
</g>
<defs>
<filter id="filter0_d_61385_125" x="0" y="0" width="56" height="56" filterUnits="userSpaceOnUse" color-interpolation-filters="sRGB">
<feFlood flood-opacity="0" result="BackgroundImageFix"/>
<feColorMatrix in="SourceAlpha" type="matrix" values="0 0 0 0 0 0 0 0 0 0 0 0 0 0 0 0 0 0 127 0" result="hardAlpha"/>
<feOffset dy="4"/>
<feGaussianBlur stdDeviation="2"/>
<feComposite in2="hardAlpha" operator="out"/>
<feColorMatrix type="matrix" values="0 0 0 0 0 0 0 0 0 0 0 0 0 0 0 0 0 0 0.25 0"/>
<feBlend mode="normal" in2="BackgroundImageFix" result="effect1_dropShadow_61385_125"/>
<feBlend mode="normal" in="SourceGraphic" in2="effect1_dropShadow_61385_125" result="shape"/>
</filter>
<clipPath id="clip0_61385_125">
<rect width="24.6857" height="19.2" fill="white" transform="translate(16 14.5712)"/>
</clipPath>
</defs>
</svg>
